<?xml version="1.0" encoding="UTF-8" standalone="no"?>
<!DOCTYPE svg PUBLIC "-//W3C//DTD SVG 1.1//EN" "http://www.w3.org/Graphics/SVG/1.1/DTD/svg11.dtd">
<svg width="100%" height="100%" viewBox="0 0 2481 2481" version="1.1" xmlns="http://www.w3.org/2000/svg" xmlns:xlink="http://www.w3.org/1999/xlink" xml:space="preserve" xmlns:serif="http://www.serif.com/" style="fill-rule:evenodd;clip-rule:evenodd;stroke-linejoin:round;stroke-miterlimit:2;">
    <g transform="matrix(6.92526,0,0,5.77786,-7976.49,-5923.31)">
        <path d="M1334.23,1289.23L1324.11,1259L1309.02,1259L1334.23,1318.26L1359.51,1259L1344.42,1259L1334.23,1289.23Z" style="fill-rule:nonzero;"/>
    </g>
    <path d="M805.69,889.99C814.16,874.48 825.644,860.7 841.161,849.802C885.549,818.628 947.439,820.785 998.151,829.662C1060.73,840.617 1123.04,853.113 1185.32,865.653C1185.32,865.653 1243.6,915.954 1263.63,915.954C1283.66,915.954 1341.94,865.653 1341.94,865.653C1404.22,853.113 1466.53,840.617 1529.11,829.662C1579.82,820.785 1641.71,818.628 1686.1,849.802C1701.61,860.7 1713.1,874.48 1721.57,889.99C1723.81,889.837 1726.09,889.759 1728.39,889.759C1764.44,889.759 1793.71,908.832 1793.71,932.325C1793.71,952.477 1772.17,969.377 1743.3,973.775C1743.52,976.661 1743.7,979.543 1743.86,982.417C1772.45,986.949 1793.71,1003.76 1793.71,1023.78C1793.71,1044.54 1770.85,1061.85 1740.65,1065.6C1727.75,1156.33 1682.21,1241.73 1595.38,1282.33C1540.28,1308.09 1482.25,1309.33 1427.38,1283.32C1397.36,1269.1 1326.17,1220.71 1274.03,1218.19L1265.85,1218.19C1265.11,1218.23 1264.37,1218.28 1263.63,1218.34L1263.32,1218.31C1262.68,1218.26 1262.04,1218.22 1261.4,1218.19L1253.23,1218.19C1201.09,1220.71 1129.9,1269.1 1099.88,1283.32C1045.01,1309.33 986.979,1308.09 931.875,1282.33C845.05,1241.73 799.504,1156.33 786.605,1065.6C756.408,1061.85 733.547,1044.54 733.547,1023.78C733.547,1003.76 754.802,986.949 783.397,982.417C783.553,979.542 783.74,976.657 783.96,973.775C755.082,969.377 733.547,952.477 733.547,932.325C733.547,908.832 762.814,889.759 798.864,889.759C801.168,889.759 803.444,889.837 805.69,889.99ZM1098.34,1022.02C1035.19,1008.67 945.151,1007.26 941.334,1020.4C937.516,1033.54 961.727,1126.65 1044.03,1142.11C1126.32,1157.56 1213.41,1128.7 1208.36,1100.91C1203.3,1073.12 1161.48,1035.37 1098.34,1022.02ZM1428.92,1022.02C1492.07,1008.67 1582.11,1007.26 1585.92,1020.4C1589.74,1033.54 1565.53,1126.65 1483.23,1142.11C1400.93,1157.56 1313.85,1128.7 1318.9,1100.91C1323.96,1073.12 1365.77,1035.37 1428.92,1022.02Z"/>
</svg>
